<svg preserveAspectRatio="none" width="100%" height="100%" overflow="visible" style="display: block;" viewBox="0 0 39.8849 40.6005" fill="none" xmlns="http://www.w3.org/2000/svg">
<g id="Group">
<g id="Vector" filter="url(#filter0_f_0_112)">
<path d="M0.0725604 20.3739C0.0933275 23.5597 0.982122 26.8467 2.32746 29.5001V29.5184C3.29953 31.4454 4.62808 32.9676 6.14126 34.4758L15.2805 31.0698C13.5514 30.1727 13.2876 29.623 12.0481 28.62C10.7815 27.3155 9.83744 25.8179 9.24953 24.0618H9.22585L9.24953 24.0436C8.86276 22.884 8.82461 21.6531 8.81034 20.3739H0.0725604Z" fill="url(#paint0_radial_0_112)"/>
</g>
<g id="Vector_2" filter="url(#filter1_f_0_112)">
<path d="M20.3604 0.0942844C19.4571 3.33561 19.8025 6.48628 20.3604 8.31948C21.4035 8.32027 22.4084 8.44727 23.3612 8.70028C25.5456 9.2803 27.0906 10.4227 28.0373 11.3263L33.8964 5.46611C30.4255 2.21567 26.2484 0.0994056 20.3604 0.0942844Z" fill="url(#paint1_radial_0_112)"/>
</g>
<g id="Vector_3" filter="url(#filter2_f_0_112)">
<path d="M20.3403 0.0686541C15.9095 0.0685563 11.8188 1.47858 8.46654 3.86157C7.22185 4.74638 6.07963 5.76847 5.06256 6.90507C4.79611 9.45817 7.05713 12.5962 11.5347 12.5702C13.7071 9.98914 16.9202 8.31919 20.4963 8.31919C20.4995 8.31919 20.5027 8.31946 20.506 8.31948L20.3599 0.0692382C20.3533 0.0692338 20.3469 0.0686541 20.3403 0.0686541Z" fill="url(#paint2_radial_0_112)"/>
</g>
<g id="Vector_4" filter="url(#filter3_f_0_112)">
<path d="M34.9646 21.2977L31.0098 24.0727C30.8363 25.1609 30.4463 26.2314 29.8756 27.2076C29.2218 28.326 28.4136 29.1775 27.5851 29.8259C25.1085 31.7642 22.2228 32.1633 20.214 32.1649C18.1376 35.7769 17.7736 37.5861 20.36 40.5013C23.5604 40.4989 26.3978 39.9089 28.9005 38.8039C30.7096 38.0051 32.3124 36.9633 33.7636 35.6243C35.6811 33.8551 37.1831 31.6667 38.2081 29.149C39.2332 26.6313 39.7813 23.7843 39.7813 20.6976L34.9646 21.2977Z" fill="url(#paint3_radial_0_112)"/>
</g>
<g id="Vector_5" filter="url(#filter4_f_0_112)">
<path d="M20.0678 16.2372V24.5108H39.0954C39.2628 23.3777 39.8163 21.9114 39.8163 20.6976C39.8163 19.2791 39.6769 17.5465 39.4403 16.2372H20.0678Z" fill="var(--fill-0, #3086FF)"/>
</g>
<g id="Vector_6" filter="url(#filter5_f_0_112)">
<path d="M5.15304 6.61299C3.97884 7.92518 2.97571 9.3939 2.18035 10.9823C0.815804 13.6988 0.0686541 17.0013 0.0686541 20.2381C0.0686541 20.2837 0.0723502 20.3283 0.0726482 20.3739C0.676961 21.5573 8.42014 21.3307 8.81042 20.3739C8.80993 20.3292 8.80501 20.2857 8.80501 20.2409C8.80501 18.9134 9.0246 17.9349 9.42486 16.7346C9.91864 15.2542 10.6918 13.8909 11.6804 12.7163C11.9045 12.424 12.5023 11.7958 12.6767 11.419C12.7432 11.2754 12.5561 11.1949 12.5456 11.1443C12.5339 11.0878 12.2832 11.1333 12.227 11.0912C12.0486 10.9575 11.6953 10.8878 11.4808 10.8257C11.0223 10.6931 10.2625 10.4007 9.84043 10.0976C8.50636 9.13946 6.42443 7.99498 5.15304 6.61299Z" fill="url(#paint4_radial_0_112)"/>
</g>
<g id="Vector_7" filter="url(#filter6_f_0_112)">
<path d="M9.86943 11.15C12.963 13.064 13.8526 10.1839 15.9094 9.28265L12.3316 1.70458C11.0155 2.26957 9.77197 2.97152 8.61821 3.79168C6.89517 5.01654 5.37359 6.51122 4.11666 8.21218L9.86943 11.15Z" fill="url(#paint5_radial_0_112)"/>
</g>
<g id="Vector_8" filter="url(#filter7_f_0_112)">
<path d="M11.1287 30.4844C6.97604 32.0156 6.32591 32.0705 5.94365 34.6991C6.67413 35.4271 7.45897 36.1006 8.29298 36.7112C10.5309 38.3497 14.8357 40.5319 20.3411 40.5319C20.3475 40.5319 20.3537 40.5313 20.3602 40.5313V32.0189C20.356 32.0189 20.3512 32.0192 20.3471 32.0192C18.2855 32.0192 16.6381 31.4661 14.949 30.5043C14.5325 30.2672 13.7769 30.904 13.3928 30.6193C12.8631 30.2267 11.5882 30.9576 11.1287 30.4844Z" fill="url(#paint6_radial_0_112)"/>
</g>
<g id="Vector_9" opacity="0.5" filter="url(#filter8_f_0_112)">
<path d="M17.9279 31.7508V40.3838C18.6982 40.4759 19.4998 40.5319 20.3408 40.5319C21.1839 40.5319 21.9994 40.4877 22.792 40.4064V31.8089C21.9038 31.964 21.0674 32.0192 20.3468 32.0192C19.5169 32.0192 18.7099 31.9205 17.9279 31.7508Z" fill="url(#paint7_linear_0_112)"/>
</g>
</g>
<defs>
<filter id="filter0_f_0_112" x="0.00390625" y="20.3052" width="15.3453" height="14.2393" filterUnits="userSpaceOnUse" color-interpolation-filters="sRGB">
<feFlood flood-opacity="0" result="BackgroundImageFix"/>
<feBlend mode="normal" in="SourceGraphic" in2="BackgroundImageFix" result="shape"/>
<feGaussianBlur stdDeviation="0.0343271" result="effect1_foregroundBlur_0_112"/>
</filter>
<filter id="filter1_f_0_112" x="19.7363" y="0.0256303" width="14.2287" height="11.3693" filterUnits="userSpaceOnUse" color-interpolation-filters="sRGB">
<feFlood flood-opacity="0" result="BackgroundImageFix"/>
<feBlend mode="normal" in="SourceGraphic" in2="BackgroundImageFix" result="shape"/>
<feGaussianBlur stdDeviation="0.0343271" result="effect1_foregroundBlur_0_112"/>
</filter>
<filter id="filter2_f_0_112" x="4.97279" y="-8.94488e-10" width="15.6018" height="12.639" filterUnits="userSpaceOnUse" color-interpolation-filters="sRGB">
<feFlood flood-opacity="0" result="BackgroundImageFix"/>
<feBlend mode="normal" in="SourceGraphic" in2="BackgroundImageFix" result="shape"/>
<feGaussianBlur stdDeviation="0.0343271" result="effect1_foregroundBlur_0_112"/>
</filter>
<filter id="filter3_f_0_112" x="18.4688" y="20.6289" width="21.3811" height="19.941" filterUnits="userSpaceOnUse" color-interpolation-filters="sRGB">
<feFlood flood-opacity="0" result="BackgroundImageFix"/>
<feBlend mode="normal" in="SourceGraphic" in2="BackgroundImageFix" result="shape"/>
<feGaussianBlur stdDeviation="0.0343271" result="effect1_foregroundBlur_0_112"/>
</filter>
<filter id="filter4_f_0_112" x="19.9992" y="16.1685" width="19.8857" height="8.41097" filterUnits="userSpaceOnUse" color-interpolation-filters="sRGB">
<feFlood flood-opacity="0" result="BackgroundImageFix"/>
<feBlend mode="normal" in="SourceGraphic" in2="BackgroundImageFix" result="shape"/>
<feGaussianBlur stdDeviation="0.0343271" result="effect1_foregroundBlur_0_112"/>
</filter>
<filter id="filter5_f_0_112" x="0" y="6.54434" width="12.7596" height="14.703" filterUnits="userSpaceOnUse" color-interpolation-filters="sRGB">
<feFlood flood-opacity="0" result="BackgroundImageFix"/>
<feBlend mode="normal" in="SourceGraphic" in2="BackgroundImageFix" result="shape"/>
<feGaussianBlur stdDeviation="0.0343271" result="effect1_foregroundBlur_0_112"/>
</filter>
<filter id="filter6_f_0_112" x="3.634" y="1.22191" width="12.7581" height="11.054" filterUnits="userSpaceOnUse" color-interpolation-filters="sRGB">
<feFlood flood-opacity="0" result="BackgroundImageFix"/>
<feBlend mode="normal" in="SourceGraphic" in2="BackgroundImageFix" result="shape"/>
<feGaussianBlur stdDeviation="0.241333" result="effect1_foregroundBlur_0_112"/>
</filter>
<filter id="filter7_f_0_112" x="5.875" y="30.3816" width="14.5538" height="10.2189" filterUnits="userSpaceOnUse" color-interpolation-filters="sRGB">
<feFlood flood-opacity="0" result="BackgroundImageFix"/>
<feBlend mode="normal" in="SourceGraphic" in2="BackgroundImageFix" result="shape"/>
<feGaussianBlur stdDeviation="0.0343271" result="effect1_foregroundBlur_0_112"/>
</filter>
<filter id="filter8_f_0_112" x="17.8592" y="31.6821" width="5.00138" height="8.91844" filterUnits="userSpaceOnUse" color-interpolation-filters="sRGB">
<feFlood flood-opacity="0" result="BackgroundImageFix"/>
<feBlend mode="normal" in="SourceGraphic" in2="BackgroundImageFix" result="shape"/>
<feGaussianBlur stdDeviation="0.0343271" result="effect1_foregroundBlur_0_112"/>
</filter>
<radialGradient id="paint0_radial_0_112" cx="0" cy="0" r="1" gradientUnits="userSpaceOnUse" gradientTransform="translate(15.0976 34.1757) rotate(-92.3395) scale(19.9365 29.2843)">
<stop offset="0.141612" stop-color="#1ABD4D"/>
<stop offset="0.247515" stop-color="#6EC30D"/>
<stop offset="0.311547" stop-color="#8AC502"/>
<stop offset="0.366013" stop-color="#A2C600"/>
<stop offset="0.445673" stop-color="#C8C903"/>
<stop offset="0.540305" stop-color="#EBCB03"/>
<stop offset="0.615636" stop-color="#F7CD07"/>
<stop offset="0.699345" stop-color="#FDCD04"/>
<stop offset="0.771242" stop-color="#FDCE05"/>
<stop offset="0.860566" stop-color="#FFCE0A"/>
</radialGradient>
<radialGradient id="paint1_radial_0_112" cx="0" cy="0" r="1" gradientTransform="matrix(13.8208 -3.39261e-05 -1.94256e-05 17.8488 33.3482 10.9023)" gradientUnits="userSpaceOnUse">
<stop offset="0.408458" stop-color="#FB4E5A"/>
<stop offset="1" stop-color="#FF4540"/>
</radialGradient>
<radialGradient id="paint2_radial_0_112" cx="0" cy="0" r="1" gradientUnits="userSpaceOnUse" gradientTransform="translate(25.8002 -2.51502) rotate(151.02) scale(22.1356 30.0378)">
<stop offset="0.231273" stop-color="#FF4541"/>
<stop offset="0.311547" stop-color="#FF4540"/>
<stop offset="0.457516" stop-color="#FF4640"/>
<stop offset="0.540305" stop-color="#FF473F"/>
<stop offset="0.699346" stop-color="#FF5138"/>
<stop offset="0.771242" stop-color="#FF5B33"/>
<stop offset="0.860566" stop-color="#FF6C29"/>
<stop offset="1" stop-color="#FF8C18"/>
</radialGradient>
<radialGradient id="paint3_radial_0_112" cx="0" cy="0" r="1" gradientUnits="userSpaceOnUse" gradientTransform="translate(20.6479 37.9125) rotate(-127.454) scale(57.7461 21.3155)">
<stop offset="0.131546" stop-color="#0CBA65"/>
<stop offset="0.209784" stop-color="#0BB86D"/>
<stop offset="0.297297" stop-color="#09B479"/>
<stop offset="0.396257" stop-color="#08AD93"/>
<stop offset="0.477124" stop-color="#0AA6A9"/>
<stop offset="0.568425" stop-color="#0D9CC6"/>
<stop offset="0.667385" stop-color="#1893DD"/>
<stop offset="0.768727" stop-color="#258BF1"/>
<stop offset="0.858506" stop-color="#3086FF"/>
</radialGradient>
<radialGradient id="paint4_radial_0_112" cx="0" cy="0" r="1" gradientUnits="userSpaceOnUse" gradientTransform="translate(18.6435 3.84654) rotate(96.6178) scale(21.564 29.8159)">
<stop offset="0.366013" stop-color="#FF4E3A"/>
<stop offset="0.457516" stop-color="#FF8A1B"/>
<stop offset="0.540305" stop-color="#FFA312"/>
<stop offset="0.615636" stop-color="#FFB60C"/>
<stop offset="0.771242" stop-color="#FFCD0A"/>
<stop offset="0.860566" stop-color="#FECF0A"/>
<stop offset="0.915033" stop-color="#FECF08"/>
<stop offset="1" stop-color="#FDCD01"/>
</radialGradient>
<radialGradient id="paint5_radial_0_112" cx="0" cy="0" r="1" gradientUnits="userSpaceOnUse" gradientTransform="translate(15.1491 3.62434) rotate(132.119) scale(10.7106 30.2098)">
<stop offset="0.315904" stop-color="#FF4C3C"/>
<stop offset="0.603818" stop-color="#FF692C"/>
<stop offset="0.726837" stop-color="#FF7825"/>
<stop offset="0.884534" stop-color="#FF8D1B"/>
<stop offset="1" stop-color="#FF9F13"/>
</radialGradient>
<radialGradient id="paint6_radial_0_112" cx="0" cy="0" r="1" gradientUnits="userSpaceOnUse" gradientTransform="translate(25.8004 42.994) rotate(-151.02) scale(22.1356 30.0378)">
<stop offset="0.231273" stop-color="#0FBC5F"/>
<stop offset="0.311547" stop-color="#0FBC5F"/>
<stop offset="0.366013" stop-color="#0FBC5E"/>
<stop offset="0.457516" stop-color="#0FBC5D"/>
<stop offset="0.540305" stop-color="#12BC58"/>
<stop offset="0.699346" stop-color="#28BF3C"/>
<stop offset="0.771242" stop-color="#38C02B"/>
<stop offset="0.860566" stop-color="#52C218"/>
<stop offset="0.915033" stop-color="#67C30F"/>
<stop offset="1" stop-color="#86C504"/>
</radialGradient>
<linearGradient id="paint7_linear_0_112" x1="17.9279" y1="36.1413" x2="22.792" y2="36.1413" gradientUnits="userSpaceOnUse">
<stop stop-color="#0FBC5C"/>
<stop offset="1" stop-color="#0CBA65"/>
</linearGradient>
</defs>
</svg>
