<svg preserveAspectRatio="xMidYMid meet" width="100%" height="100%" overflow="visible" style="display: block;" viewBox="0 0 88.4118 100.186" fill="none" xmlns="http://www.w3.org/2000/svg">
<g id="Group">
<g id="Vector">
</g>
<path id="Vector_2" d="M87.6618 99.4359V93.6418C87.6618 87.495 85.22 81.6 80.8735 77.2535C76.5271 72.9071 70.6321 70.4653 64.4853 70.4653H23.9265C17.7797 70.4653 11.8847 72.9071 7.53823 77.2535C3.1918 81.6 0.75 87.495 0.75 93.6418V99.4359M67.6128 23.9265C67.6128 30.0733 65.171 35.9683 60.8245 40.3147C56.4781 44.6611 50.5831 47.1029 44.4363 47.1029C38.2895 47.1029 32.3945 44.6611 28.048 40.3147C23.7016 35.9683 21.2598 30.0733 21.2598 23.9265C21.2598 17.7797 23.7016 11.8847 28.048 7.53823C32.3945 3.1918 38.2895 0.75 44.4363 0.75C50.5831 0.75 56.4781 3.1918 60.8245 7.53823C65.171 11.8847 67.6128 17.7797 67.6128 23.9265Z" stroke="var(--stroke-0, black)" stroke-width="1.5" stroke-linecap="square"/>
</g>
</svg>
