<svg preserveAspectRatio="xMidYMid meet" width="100%" height="100%" overflow="visible" style="display: block;" viewBox="0 0 100 100" fill="none" xmlns="http://www.w3.org/2000/svg">
<g id="Group">
<g id="Vector">
<path d="M98.5222 50C98.5222 23.2012 76.7988 1.47783 50 1.47783C23.2012 1.47783 1.47783 23.2012 1.47783 50C1.47783 76.7988 23.2012 98.5222 50 98.5222C76.7988 98.5222 98.5222 76.7988 98.5222 50ZM100 50C100 77.615 77.615 100 50 100C22.385 100 0 77.615 0 50C2.03131e-06 22.385 22.385 2.03104e-06 50 0C77.615 0 100 22.385 100 50Z" fill="var(--fill-0, #0A0A0A)"/>
<path d="M73.2076 35.2205L42.606 65.822L26.7828 49.9988L27.8277 48.9539L42.606 63.7322L72.1627 34.1756L73.2076 35.2205Z" fill="var(--fill-0, #0A0A0A)"/>
</g>
</g>
</svg>
