<svg preserveAspectRatio="none" width="100%" height="100%" overflow="visible" style="display: block;" viewBox="0 0 92 40" fill="none" xmlns="http://www.w3.org/2000/svg">
<g id="Logo">
<g id="Vector">
<path d="M53.8765 7.19061C57.8011 6.90956 60.6254 9.23185 60.985 13.1483C61.3761 17.4031 59.355 20.6926 54.9494 21.1233C51.0329 21.2798 48.2597 19.138 47.8672 15.1229C47.4627 10.984 49.5192 7.61324 53.8765 7.19061ZM55.0164 18.196C57.5127 17.487 57.5371 14.2422 57.0355 12.156C56.6588 10.5883 55.4352 9.91497 53.8707 10.1027C51.4112 10.7259 51.3217 13.8263 51.7803 15.8764C52.148 17.5224 53.3204 18.3929 55.0164 18.196Z" fill="var(--fill-0, white)"/>
<path d="M11.1004 2L14.8056 2V9.0293C16.4185 6.80336 19.795 6.50868 21.7697 8.32218C23.3886 9.80882 23.0993 12.7955 23.0991 14.8035L23.098 20.8334H19.4188V15.7063L19.4251 13.7789C19.429 12.1279 19.5452 10.2427 17.3378 10.1584C14.2919 10.0422 14.8029 13.7117 14.8074 15.798L14.8056 20.8334H11.1004V2Z" fill="var(--fill-0, white)"/>
<path d="M85.0881 7.18999C85.4955 7.12477 86.2505 7.1712 86.6502 7.20691C90.7455 7.57284 92.2397 11.247 91.8548 14.9436L83.0422 14.9436C83.0565 16.0919 83.5132 17.5622 84.6454 18.0123C86.1157 18.5966 87.3818 18.2167 88.0498 16.8158H91.5756C91.6368 16.815 91.6526 16.8264 91.7118 16.8452C91.7687 17.2996 90.8938 18.6629 90.6207 19.0159C88.6422 21.5707 84.0401 21.8154 81.6044 19.8402C78.7102 17.4929 78.6308 12.0543 80.8872 9.23252C81.9496 7.91093 83.44 7.34964 85.0881 7.18999ZM83.123 12.6692H88.1989C88.099 11.0233 87.4253 9.61493 85.5218 9.81791C83.845 10.0046 83.275 11.086 83.123 12.6692Z" fill="var(--fill-0, white)"/>
<path d="M32.025 7.19047C32.4277 7.16087 32.8319 7.15676 33.2351 7.17803C37.7288 7.43891 39.0566 10.989 38.8069 14.9436H29.9791C30.0527 16.1593 30.3632 17.3991 31.5576 17.9968C32.3326 18.3846 33.5023 18.3512 34.2228 17.8503C34.616 17.5769 34.791 17.2364 34.9964 16.8158H38.5496C38.5728 16.8161 38.6342 16.8358 38.6602 16.8431C38.7173 17.2666 37.8694 18.6226 37.5926 18.9851C35.6239 21.5635 31.0128 21.8225 28.563 19.8512C25.655 17.5112 25.5747 12.0677 27.8232 9.24289C28.8861 7.91428 30.3736 7.35437 32.025 7.19047ZM30.0594 12.6692H35.1473C35.0342 10.9935 34.3884 9.64343 32.4639 9.81872C30.7365 10.0062 30.2715 11.0896 30.0594 12.6692Z" fill="var(--fill-0, white)"/>
<path d="M2.06083 3.86129H5.76337V7.47362H8.37464V10.256H5.76337L5.75969 14.8542C5.7593 15.6974 5.62557 17.2783 6.0536 17.9515C6.64903 18.3557 7.33229 18.2552 8.0191 18.2117L8.01905 20.4758L8.00963 20.7243C7.69367 20.9846 6.1728 20.9968 5.71091 21.0104C1.70246 21.1294 2.0581 18.1133 2.05805 15.2233L2.06083 10.256H0V7.47362H2.06083V3.86129Z" fill="var(--fill-0, white)"/>
<path d="M71.2129 7.18827C72.5795 6.98028 74.2506 7.50676 75.1131 8.62594C76.4806 10.3999 76.2114 12.8499 76.211 14.9809L76.2095 20.8334H72.7129L72.5632 20.8224C72.4972 20.7492 72.4838 20.635 72.4848 20.5388C72.5106 17.8877 72.5097 15.2371 72.4953 12.5852C72.4872 11.0323 71.7767 10.0501 70.1467 10.1652C69.3692 10.2201 68.9853 10.413 68.4612 10.9908V8.39787C69.2741 7.60014 70.1075 7.31741 71.2129 7.18827Z" fill="var(--fill-0, white)"/>
<path d="M61.6989 7.37732C63.7276 7.44804 65.8659 7.44971 67.9028 7.48309L67.9004 16.6829L67.908 19.3281C67.9095 19.7643 67.9295 20.4844 67.8846 20.8907L64.1101 20.8403L64.1847 10.3728C63.3896 10.326 62.5657 10.3053 61.7682 10.2748L61.6989 7.37732Z" fill="#FF6D2E"/>
<path d="M44.5834 26.5031C45.356 26.4087 46.0985 26.5819 46.5623 27.2633C46.8224 27.6435 46.9181 28.1125 46.8282 28.5642C46.6532 29.4207 45.9297 29.8391 45.2503 30.2817C45.8475 30.848 46.4619 31.472 47.0515 32.0518L48.6915 29.484H49.5512L47.5339 32.5337C48.0063 32.9636 48.5356 33.5108 48.998 33.9642L49.6535 34.6118H48.5523L47.0983 33.1703C46.7784 33.6046 46.4208 34.0231 45.9642 34.318C45.3722 34.6952 44.6549 34.8221 43.9694 34.6708C43.4144 34.5466 42.9408 34.2238 42.6397 33.7389C42.3438 33.2559 42.2528 32.6747 42.3868 32.1243C42.6059 31.2073 43.3615 30.6965 44.1137 30.2397C43.9739 30.0961 43.8261 29.9519 43.6999 29.797C42.6779 28.543 42.9582 26.9721 44.5834 26.5031ZM45.2049 33.9266C45.8843 33.6385 46.1669 33.2964 46.6159 32.7045C46.2812 32.3705 44.8707 30.875 44.5502 30.6861C43.6535 31.2709 42.6541 32.1086 43.3941 33.398C43.7376 33.9965 44.5654 34.076 45.2049 33.9266ZM44.9735 29.7352C45.1532 29.6152 45.3235 29.4975 45.4961 29.3679C46.2927 28.7711 46.3816 27.3632 45.2197 27.141C45.0896 27.1162 44.9562 27.1085 44.8243 27.1181C43.1269 27.5458 44.0925 29.5764 44.8348 29.8032L44.9735 29.7352Z" fill="var(--fill-0, white)"/>
<path d="M34.524 28.6982C35.3886 28.6551 36.1233 28.7752 36.5797 29.5995L36.6276 28.829H37.3541C37.3404 30.061 37.3361 31.2929 37.3411 32.525C37.3468 34.1542 37.6289 36.5594 35.5089 36.9499C34.0824 37.2127 32.7363 36.8364 32.4394 35.2721C32.6523 35.2679 33.0283 35.2448 33.2157 35.3021L33.2559 35.3978C33.7048 36.4024 35.0048 36.6392 35.8943 36.0671C36.6273 35.5957 36.5865 34.3291 36.5868 33.5466C36.5385 33.6341 36.4864 33.7196 36.4308 33.8027C35.9523 34.5257 35.0483 34.7108 34.2407 34.5533C32.1655 34.1381 31.8547 31.1955 32.8831 29.698C33.2995 29.0916 33.8208 28.826 34.524 28.6982ZM35.1049 33.9061C36.6978 33.5981 36.7313 32.0991 36.5462 30.7521C36.4112 29.7704 35.7023 29.3637 34.7561 29.3729C34.2908 29.44 33.8485 29.608 33.5834 30.0198C32.6838 31.4172 33.022 33.9879 35.1049 33.9061Z" fill="var(--fill-0, white)"/>
<path d="M82.0357 28.7036C82.9494 28.635 83.6403 28.7716 84.1462 29.5964L84.1868 28.829H84.9179C84.8998 30.0551 84.894 31.2814 84.9002 32.5077C84.9079 34.6397 85.1632 37.0928 82.2083 37.0188C80.9838 36.9882 80.268 36.4692 79.9897 35.2721C80.2063 35.2686 80.5764 35.2505 80.7743 35.2945L80.7973 35.3587C81.3079 36.4578 82.6855 36.7025 83.6097 35.9255C84.1873 35.4401 84.1481 34.266 84.1491 33.5524C84.1261 33.5903 84.1027 33.6281 84.0793 33.6657C83.7823 34.1393 83.4974 34.4034 82.9322 34.5291C80.1078 35.1575 79.1721 31.7481 80.3985 29.7652C80.7858 29.1384 81.3309 28.8489 82.0357 28.7036ZM82.6252 33.9096C84.2261 33.6323 84.2849 32.1849 84.1209 30.8278C83.997 29.8045 83.3233 29.3802 82.3345 29.3718C81.8631 29.4363 81.4213 29.596 81.1492 30.0124C80.2498 31.3893 80.5697 33.9569 82.6252 33.9096Z" fill="var(--fill-0, white)"/>
<path d="M65.5551 28.7032C68.3508 28.539 69.1717 31.4172 68.0137 33.5894C67.6766 34.2212 66.9976 34.5639 66.3129 34.7169C65.7153 34.7982 64.9168 34.7155 64.4415 34.3355C62.5045 32.7877 62.8851 29.181 65.5551 28.7032ZM66.1346 34.0595C66.4827 33.9812 66.7519 33.9027 67.0168 33.6423C68.2633 32.4184 67.8726 29.2148 65.698 29.37C63.2686 29.7578 63.5655 34.2578 66.1346 34.0595Z" fill="var(--fill-0, white)"/>
<path d="M12.916 28.6995C14.4359 28.5813 15.5358 29.4672 15.779 30.9567C16.0671 32.7213 15.4122 34.4097 13.5226 34.7332C10.0141 35.1606 9.38161 29.2895 12.916 28.6995ZM13.4316 34.0631C14.9191 33.7564 15.199 32.2976 14.9641 30.9894C14.7861 29.9983 14.05 29.2949 12.9921 29.3724C10.5633 29.8265 10.9613 34.2679 13.4316 34.0631Z" fill="var(--fill-0, white)"/>
<path d="M75.7362 28.7013C78.0733 28.5824 78.3114 29.6171 78.2325 31.6379C78.1976 32.5367 78.2019 33.7332 78.3043 34.6118H77.5512C77.5115 34.3822 77.4852 34.0707 77.458 33.833C76.5552 35.1427 74.405 35.1147 73.7705 33.5675C73.7261 33.4049 73.6873 33.1627 73.6873 32.9959C73.6845 30.972 76.091 31.1215 77.4608 31.1283C77.4608 30.7173 77.5096 30.3837 77.3255 29.9826C76.9942 29.2593 76.0274 29.1594 75.3752 29.4716C74.9539 29.6733 74.8497 29.9321 74.7196 30.3556H73.9484C74.1698 29.2525 74.668 28.8669 75.7362 28.7013ZM76.2703 34.053C77.4575 33.6767 77.469 32.8032 77.4728 31.7254C76.91 31.7237 76.2827 31.7086 75.7285 31.7635C74.996 31.9184 74.3237 32.2976 74.5059 33.1764C74.5647 33.4692 74.7392 33.7257 74.9898 33.8881C75.369 34.1367 75.8385 34.128 76.2703 34.053Z" fill="var(--fill-0, white)"/>
<path d="M88.788 28.7003C90.8804 28.5918 91.5517 29.9487 91.5077 31.8426H87.3206C87.3593 32.5224 87.4817 33.1553 87.9991 33.6473C88.3137 33.9494 88.7373 34.111 89.1734 34.0952C89.6735 34.0753 90.0494 33.8475 90.3759 33.4873C90.4486 33.3747 90.5385 33.1946 90.6049 33.0722H91.3929C90.5108 35.6342 86.9156 35.1829 86.5967 32.4943C86.3906 30.7576 86.8319 29.0293 88.788 28.7003ZM87.3545 31.2385H90.724C90.6236 29.98 90.0972 29.236 88.7058 29.3728C87.7017 29.6814 87.5061 30.2911 87.3545 31.2385Z" fill="var(--fill-0, white)"/>
<path d="M3.33211 28.6981C4.23671 28.6485 4.86173 28.8674 5.24879 29.7582C5.62533 29.1814 5.99307 28.8372 6.68814 28.7221C8.17354 28.4761 8.9379 29.4337 8.94426 30.8295C8.94999 32.0954 8.9443 33.3531 8.94081 34.6118H8.17215L8.17937 32.0889C8.18128 31.2342 8.35987 29.5896 7.22046 29.4199C5.05543 29.0975 5.4051 31.7435 5.41394 33.0629V34.6118H4.6547L4.66326 31.9879C4.6646 31.333 4.77868 29.9378 4.14079 29.5946C2.84445 28.8973 1.91815 30.0344 1.90734 31.2718C1.8973 32.4162 1.90127 33.4994 1.90567 34.6118H1.13661C1.1379 32.7171 1.16794 30.7131 1.11782 28.829H1.86684C1.89744 29.1243 1.9007 29.444 1.90945 29.7427C1.9432 29.6857 1.9783 29.6294 2.01469 29.5741C2.37076 29.0223 2.69637 28.8365 3.33211 28.6981Z" fill="var(--fill-0, white)"/>
<path d="M28.3936 28.702C29.4466 28.6335 30.4572 29.0647 30.6013 30.1431C30.7801 31.4808 30.6908 33.246 30.6877 34.6118H29.9088C29.9065 33.6216 30.0728 30.8771 29.7409 30.1206C29.611 29.8248 29.3919 29.5791 29.0856 29.4625C28.6418 29.2935 28.1396 29.4147 27.7208 29.5966C26.7003 30.3423 26.8638 31.6262 26.8666 32.752L26.8722 34.6118H26.0996C26.1006 32.7093 26.1265 30.7238 26.0853 28.829H26.8469C26.8717 29.1106 26.8683 29.5179 26.8746 29.8093C26.9269 29.7132 26.9839 29.6195 27.0452 29.5288C27.4117 28.9843 27.7748 28.8221 28.3936 28.702Z" fill="var(--fill-0, white)"/>
<path d="M55.8569 28.7016C57.1876 28.6246 57.9713 28.9794 58.3366 30.3291L57.5735 30.3291C57.2421 29.5076 56.8309 29.3046 55.9559 29.3473C55.4438 29.3723 54.8748 29.7766 55.001 30.3115C55.2382 31.3168 57.1924 31.1444 57.8814 31.8201C58.1754 32.109 58.3954 32.26 58.4432 32.709C58.5106 34.1688 57.6227 34.6146 56.4178 34.7555C55.0785 34.7271 54.2972 34.3631 53.9774 32.9868H54.7481C55.1172 33.9799 55.7924 34.2085 56.7874 34.0518C57.3827 33.9581 57.7389 33.4144 57.6041 32.8309C57.4568 32.2188 56.643 32.0048 56.0673 31.8722C54.7352 31.5656 53.6412 30.8927 54.4957 29.3984C54.7462 28.96 55.3625 28.7835 55.8569 28.7016Z" fill="var(--fill-0, white)"/>
<path d="M16.7849 28.829H17.6094C18.1733 30.4691 18.7973 32.2056 19.2849 33.8602C19.7848 32.2404 20.4806 30.4362 21.0644 28.829H21.8635L21.6647 29.3682L19.7061 34.6118H18.822L16.7849 28.829Z" fill="var(--fill-0, white)"/>
<path d="M60.2587 27.0674H61.0319V28.829H62.3635V29.4991H61.0319C61.0333 30.6458 60.9314 32.5772 61.1399 33.6979C61.2308 34.1871 61.8887 33.9029 62.2067 34.0389C62.3042 34.1717 62.2736 34.2489 62.2779 34.4371L62.2487 34.5641C62.0804 34.6851 61.903 34.6805 61.707 34.6891C60.9597 34.7221 60.4069 34.5421 60.2989 33.7194C60.2271 33.1749 60.252 32.647 60.2525 32.096L60.2587 29.4991H59.2216V28.829H60.2587V27.0674Z" fill="var(--fill-0, white)"/>
<path d="M72.699 28.696L72.8611 28.7076C72.9596 28.8538 72.9166 29.2907 72.9099 29.4864C70.8328 29.6272 70.9117 31.2509 70.916 32.828L70.9213 34.6118H70.1467V33.7801L70.1386 28.829H70.9036C70.9165 29.2251 70.9165 29.6349 70.9218 30.0323C71.3133 29.1992 71.8173 28.8702 72.699 28.696Z" fill="var(--fill-0, white)"/>
<path d="M23.2336 28.829H24.006V34.6118H23.2336V28.829Z" fill="var(--fill-0, white)"/>
<path d="M23.2336 26.1546H24.006V27.3423L23.2336 27.3423V26.1546Z" fill="var(--fill-0, white)"/>
</g>
</g>
</svg>
