<svg preserveAspectRatio="none" width="100%" height="100%" overflow="visible" style="display: block;" viewBox="0 0 162.541 63" fill="none" xmlns="http://www.w3.org/2000/svg">
<g id="Logo">
<g id="Vector">
<path d="M95.2763 9.39989C102.217 8.90287 107.211 13.0097 107.847 19.9356C108.539 27.4598 104.965 33.2771 97.1737 34.0388C90.2477 34.3156 85.3435 30.528 84.6493 23.4276C83.934 16.1082 87.5707 10.1473 95.2763 9.39989ZM97.2921 28.862C101.707 27.6083 101.75 21.8702 100.863 18.1808C100.197 15.4084 98.0328 14.2177 95.2661 14.5497C90.9166 15.6518 90.7585 21.1346 91.5693 24.76C92.2196 27.6708 94.2929 29.2103 97.2921 28.862Z" fill="var(--fill-0, white)"/>
<path d="M19.6302 0.220712L26.1825 0.220703V12.6515C29.0348 8.71507 35.0059 8.19395 38.4981 11.401C41.361 14.03 40.8493 19.3117 40.8489 22.8628L40.847 33.5261H34.3406V24.4592L34.3517 21.0508C34.3586 18.1311 34.5642 14.7972 30.6605 14.6483C25.2742 14.4428 26.1777 20.9318 26.1857 24.6213L26.1825 33.5261H19.6302V0.220712Z" fill="var(--fill-0, white)"/>
<path d="M150.472 9.39879C151.192 9.28345 152.527 9.36556 153.234 9.42872C160.476 10.0758 163.119 16.5733 162.438 23.1104L146.854 23.1105C146.879 25.1412 147.686 27.7413 149.689 28.5371C152.289 29.5705 154.528 28.8987 155.709 26.4212H161.944C162.052 26.4198 162.08 26.4401 162.185 26.4733C162.286 27.2768 160.738 29.6877 160.256 30.3119C156.757 34.8299 148.618 35.2627 144.311 31.7697C139.193 27.6186 139.052 18.001 143.043 13.0108C144.921 10.6737 147.557 9.68112 150.472 9.39879ZM146.996 19.0884H155.973C155.796 16.1778 154.605 13.6871 151.239 14.0461C148.273 14.3762 147.265 16.2886 146.996 19.0884Z" fill="var(--fill-0, white)"/>
<path d="M56.6337 9.39963C57.3458 9.34729 58.0606 9.34002 58.7737 9.37765C66.7204 9.83898 69.0686 16.1171 68.6269 23.1105H53.0157C53.1459 25.2602 53.6949 27.4528 55.807 28.5097C57.1777 29.1956 59.2463 29.1365 60.5203 28.2506C61.2156 27.7672 61.5251 27.165 61.8884 26.4212H68.172C68.2129 26.4218 68.3215 26.4566 68.3674 26.4696C68.4685 27.2186 66.969 29.6165 66.4796 30.2575C62.9981 34.8171 54.8437 35.2753 50.5114 31.7891C45.3689 27.6511 45.2268 18.0247 49.2032 13.0292C51.0828 10.6796 53.7134 9.68949 56.6337 9.39963ZM53.1577 19.0884H62.1553C61.9553 16.125 60.8132 13.7375 57.4099 14.0475C54.3551 14.379 53.5328 16.295 53.1577 19.0884Z" fill="var(--fill-0, white)"/>
<path d="M3.64441 3.51225H10.1921V9.90037H14.8099V14.8207H10.1921L10.1855 22.9524C10.1849 24.4434 9.94837 27.2391 10.7053 28.4296C11.7583 29.1445 12.9666 28.9667 14.1811 28.8898L14.1811 32.8937L14.1644 33.3332C13.6057 33.7935 10.9161 33.815 10.0993 33.8392C3.01067 34.0495 3.63959 28.7159 3.6395 23.605L3.64441 14.8207H0V9.90037H3.64441V3.51225Z" fill="var(--fill-0, white)"/>
<path d="M125.934 9.39574C128.351 9.02793 131.306 9.95897 132.832 11.9382C135.25 15.0753 134.774 19.4079 134.773 23.1764L134.771 33.5261H128.587L128.322 33.5067C128.206 33.3772 128.182 33.1752 128.184 33.005C128.229 28.3168 128.228 23.6295 128.202 18.9399C128.188 16.1937 126.931 14.4567 124.049 14.6603C122.674 14.7572 121.995 15.0984 121.068 16.1203V11.5348C122.506 10.1241 123.98 9.62413 125.934 9.39574Z" fill="var(--fill-0, white)"/>
<path d="M109.11 9.73008C112.697 9.85513 116.479 9.85809 120.081 9.91711L120.076 26.1863L120.09 30.8641C120.093 31.6354 120.128 32.909 120.049 33.6275L113.374 33.5382L113.506 15.0274C112.099 14.9446 110.643 14.9079 109.232 14.8541L109.11 9.73008Z" fill="#FF6D2E"/>
<path d="M78.8423 43.5526C80.2085 43.3856 81.5216 43.6919 82.3418 44.8969C82.8018 45.5692 82.9709 46.3986 82.8119 47.1974C82.5024 48.7121 81.2231 49.452 80.0216 50.2347C81.0777 51.2361 82.1642 52.3396 83.2068 53.3649L86.1071 48.824H87.6274L84.06 54.2172C84.8954 54.9774 85.8314 55.945 86.6491 56.7469L87.8083 57.8921H85.861L83.2897 55.343C82.724 56.1109 82.0915 56.851 81.284 57.3725C80.2372 58.0396 78.9686 58.264 77.7563 57.9965C76.775 57.7767 75.9374 57.206 75.405 56.3485C74.8817 55.4942 74.7208 54.4664 74.9578 53.4931C75.3451 51.8715 76.6815 50.9682 78.0115 50.1604C77.7643 49.9064 77.503 49.6514 77.2798 49.3775C75.4726 47.1598 75.9682 44.3819 78.8423 43.5526ZM79.9413 56.6805C81.1428 56.1709 81.6425 55.5659 82.4365 54.5191C81.8446 53.9286 79.3502 51.2839 78.7835 50.9498C77.1978 51.984 75.4304 53.4654 76.739 55.7455C77.3465 56.8041 78.8103 56.9445 79.9413 56.6805ZM79.532 49.2682C79.8499 49.056 80.151 48.8478 80.4562 48.6187C81.8649 47.5633 82.0222 45.0735 79.9675 44.6806C79.7375 44.6367 79.5016 44.6231 79.2682 44.6401C76.2665 45.3965 77.9742 48.9873 79.2868 49.3885L79.532 49.2682Z" fill="var(--fill-0, white)"/>
<path d="M61.053 47.4344C62.5819 47.3581 63.8812 47.5705 64.6883 49.0282L64.7731 47.6657H66.0578C66.0336 49.8443 66.0259 52.023 66.0348 54.2017C66.045 57.0829 66.5438 61.3363 62.7947 62.0269C60.2721 62.4915 57.8915 61.8262 57.3665 59.0598C57.7429 59.0524 58.408 59.0116 58.7393 59.1128L58.8104 59.2821C59.6043 61.0587 61.9033 61.4774 63.4763 60.4657C64.7725 59.632 64.7003 57.3922 64.7009 56.0083C64.6155 56.1631 64.5234 56.3142 64.425 56.4613C63.5789 57.7398 61.9802 58.0672 60.5521 57.7887C56.8821 57.0544 56.3325 51.8506 58.1511 49.2023C58.8876 48.13 59.8095 47.6603 61.053 47.4344ZM62.0803 56.6441C64.8971 56.0994 64.9565 53.4486 64.629 51.0665C64.3904 49.3305 63.1367 48.6113 61.4634 48.6275C60.6406 48.7462 59.8584 49.0433 59.3896 49.7715C57.7988 52.2426 58.3967 56.7888 62.0803 56.6441Z" fill="var(--fill-0, white)"/>
<path d="M145.074 47.4438C146.689 47.3227 147.911 47.5641 148.806 49.0228L148.878 47.6657H150.171C150.139 49.834 150.128 52.0026 150.139 54.1711C150.153 57.9415 150.604 62.2796 145.379 62.1488C143.213 62.0946 141.948 61.1767 141.455 59.0598C141.839 59.0537 142.493 59.0216 142.843 59.0993L142.884 59.2129C143.787 61.1566 146.223 61.5893 147.857 60.2152C148.879 59.3569 148.809 57.2806 148.811 56.0186C148.77 56.0857 148.729 56.1525 148.688 56.2189C148.162 57.0566 147.658 57.5236 146.659 57.7459C141.664 58.8572 140.01 52.8279 142.178 49.3213C142.863 48.2128 143.827 47.7009 145.074 47.4438ZM146.116 56.6503C148.947 56.1599 149.051 53.6003 148.761 51.2004C148.542 49.3907 147.351 48.6404 145.602 48.6256C144.768 48.7396 143.987 49.022 143.506 49.7585C141.915 52.1933 142.481 56.734 146.116 56.6503Z" fill="var(--fill-0, white)"/>
<path d="M115.929 47.4433C120.873 47.1528 122.325 52.2426 120.277 56.0841C119.681 57.2014 118.48 57.8073 117.269 58.078C116.212 58.2217 114.8 58.0755 113.96 57.4035C110.534 54.6663 111.207 48.2882 115.929 47.4433ZM116.954 56.9154C117.569 56.777 118.045 56.6381 118.514 56.1777C120.718 54.0133 120.027 48.348 116.182 48.6224C111.886 49.3082 112.411 57.2662 116.954 56.9154Z" fill="var(--fill-0, white)"/>
<path d="M22.8409 47.4367C25.5288 47.2276 27.4739 48.7944 27.9039 51.4284C28.4134 54.549 27.2552 57.5346 23.9137 58.1068C17.7092 58.8627 16.5906 48.4801 22.8409 47.4367ZM23.7527 56.9217C26.3832 56.3794 26.8782 53.7996 26.4628 51.4861C26.1481 49.7334 24.8463 48.4896 22.9754 48.6266C18.6804 49.4297 19.3843 57.2839 23.7527 56.9217Z" fill="var(--fill-0, white)"/>
<path d="M133.933 47.4399C138.067 47.2296 138.488 49.0595 138.348 52.6329C138.286 54.2224 138.294 56.3383 138.475 57.8921H137.143C137.073 57.486 137.026 56.9352 136.978 56.5149C135.382 58.8309 131.579 58.7815 130.457 56.0454C130.379 55.7579 130.31 55.3294 130.31 55.0346C130.305 51.4554 134.561 51.7197 136.983 51.7317C136.983 51.005 137.07 50.415 136.744 49.7057C136.158 48.4266 134.448 48.2499 133.295 48.8021C132.55 49.1587 132.366 49.6164 132.136 50.3654H130.772C131.163 48.4146 132.044 47.7328 133.933 47.4399ZM134.878 56.9039C136.977 56.2384 136.998 54.6937 137.005 52.7877C136.009 52.7848 134.9 52.758 133.92 52.8552C132.625 53.129 131.436 53.7996 131.758 55.3537C131.862 55.8714 132.17 56.3251 132.614 56.6123C133.284 57.0519 134.114 57.0365 134.878 56.9039Z" fill="var(--fill-0, white)"/>
<path d="M157.015 47.438C160.715 47.2462 161.902 49.6458 161.824 52.9949H154.42C154.488 54.1971 154.705 55.3163 155.619 56.1865C156.176 56.7207 156.925 57.0064 157.696 56.9785C158.581 56.9433 159.245 56.5404 159.823 55.9036C159.951 55.7043 160.11 55.3859 160.228 55.1694H161.621C160.061 59.7001 153.703 58.902 153.139 54.1474C152.775 51.0762 153.555 48.0198 157.015 47.438ZM154.48 51.9266H160.438C160.261 49.7011 159.33 48.3855 156.869 48.6273C155.093 49.1731 154.748 50.2513 154.48 51.9266Z" fill="var(--fill-0, white)"/>
<path d="M5.89257 47.4342C7.49228 47.3465 8.59759 47.7335 9.28207 49.3089C9.94795 48.2888 10.5983 47.6801 11.8275 47.4766C14.4543 47.0415 15.806 48.7351 15.8172 51.2034C15.8274 53.4421 15.8173 55.6661 15.8111 57.8921H14.4518L14.4646 53.4305C14.468 51.9191 14.7838 49.0107 12.7688 48.7106C8.94013 48.1405 9.55848 52.8197 9.57413 55.153V57.8921H8.23147L8.2466 53.252C8.24897 52.0938 8.45072 49.6265 7.32266 49.0196C5.03019 47.7864 3.39209 49.7973 3.37298 51.9855C3.35523 54.0094 3.36225 55.9249 3.37002 57.8921H2.01001C2.01229 54.5415 2.06541 50.9976 1.97678 47.6657H3.30137C3.35548 48.1879 3.36123 48.7532 3.3767 49.2814C3.4364 49.1806 3.49847 49.0812 3.56281 48.9833C4.1925 48.0076 4.76832 47.6789 5.89257 47.4342Z" fill="var(--fill-0, white)"/>
<path d="M50.2118 47.4411C52.074 47.3199 53.8611 48.0824 54.116 49.9896C54.4323 52.3551 54.2743 55.4767 54.2687 57.8921H52.8914C52.8873 56.141 53.1813 51.2877 52.5944 49.9498C52.3648 49.4266 51.9773 48.9921 51.4355 48.7859C50.6508 48.4872 49.7626 48.7015 49.0221 49.0231C47.2175 50.3418 47.5065 52.6122 47.5115 54.6033L47.5214 57.8921H46.155C46.1568 54.5277 46.2026 51.0165 46.1298 47.6657H47.4767C47.5204 48.1637 47.5145 48.884 47.5256 49.3993C47.6182 49.2292 47.7189 49.0637 47.8273 48.9032C48.4754 47.9403 49.1176 47.6535 50.2118 47.4411Z" fill="var(--fill-0, white)"/>
<path d="M98.7786 47.4403C101.132 47.3042 102.518 47.9316 103.164 50.3186L101.814 50.3185C101.228 48.8657 100.501 48.5067 98.9536 48.5823C98.048 48.6264 97.0418 49.3414 97.265 50.2873C97.6844 52.0651 101.14 51.7602 102.359 52.9553C102.879 53.4661 103.268 53.7331 103.352 54.5271C103.471 57.1086 101.901 57.897 99.7704 58.1461C97.402 58.096 96.0204 57.4524 95.4547 55.0184H96.8177C97.4705 56.7746 98.6644 57.1789 100.424 56.9018C101.477 56.7362 102.107 55.7746 101.868 54.7428C101.608 53.6602 100.169 53.2818 99.1506 53.0473C96.7949 52.5051 94.8603 51.3151 96.3713 48.6727C96.8143 47.8973 97.9043 47.5852 98.7786 47.4403Z" fill="var(--fill-0, white)"/>
<path d="M29.6828 47.6657H31.1409C32.138 50.5661 33.2415 53.637 34.1038 56.5629C34.9878 53.6985 36.2183 50.5079 37.2507 47.6657H38.6638L38.3124 48.6192L34.8487 57.8921H33.2851L29.6828 47.6657Z" fill="var(--fill-0, white)"/>
<path d="M106.563 44.5504H107.93V47.6657H110.285V48.8507H107.93C107.933 50.8785 107.752 54.2941 108.121 56.2759C108.282 57.141 109.445 56.6384 110.008 56.8789C110.18 57.1139 110.126 57.2503 110.134 57.5831L110.082 57.8077C109.784 58.0218 109.471 58.0136 109.124 58.0289C107.802 58.0871 106.825 57.7688 106.634 56.3139C106.507 55.351 106.551 54.4175 106.552 53.4432L106.563 48.8507H104.729V47.6657H106.563V44.5504Z" fill="var(--fill-0, white)"/>
<path d="M128.562 47.4304L128.849 47.451C129.023 47.7096 128.947 48.4821 128.935 48.8283C125.262 49.0772 125.402 51.9485 125.409 54.7375L125.419 57.8921H124.049V56.4213L124.034 47.6657H125.387C125.41 48.3662 125.41 49.0909 125.42 49.7936C126.112 48.3203 127.003 47.7385 128.562 47.4304Z" fill="var(--fill-0, white)"/>
<path d="M41.0868 47.6657H42.4527V57.8921H41.0868V47.6657Z" fill="var(--fill-0, white)"/>
<path d="M41.0868 42.9363H42.4527V45.0365L41.0868 45.0366V42.9363Z" fill="var(--fill-0, white)"/>
</g>
</g>
</svg>
