<svg preserveAspectRatio="none" width="100%" height="100%" overflow="visible" style="display: block;" viewBox="0 0 24 24" fill="none" xmlns="http://www.w3.org/2000/svg">
<g id="Frame">
<path id="Vector" d="M15.5569 14.656L15.1019 15.109C15.1019 15.109 14.0189 16.185 11.0639 13.247C8.10886 10.309 9.19186 9.23298 9.19186 9.23298L9.47786 8.94698C10.1849 8.24498 10.2519 7.11698 9.63486 6.29298L8.37486 4.60998C7.61086 3.58998 6.13586 3.45498 5.26086 4.32498L3.69086 5.88498C3.25786 6.31698 2.96786 6.87498 3.00286 7.49498C3.09286 9.08198 3.81086 12.495 7.81486 16.477C12.0619 20.699 16.0469 20.867 17.6759 20.715C18.1919 20.667 18.6399 20.405 19.0009 20.045L20.4209 18.633C21.3809 17.68 21.1109 16.045 19.8829 15.378L17.9729 14.339C17.1669 13.902 16.1869 14.03 15.5569 14.656Z" fill="var(--fill-0, #D7D7D7)"/>
</g>
</svg>
