<svg preserveAspectRatio="none" width="100%" height="100%" overflow="visible" style="display: block;" viewBox="0 0 16 16" fill="none" xmlns="http://www.w3.org/2000/svg">
<g id="Frame" clip-path="url(#clip0_0_110)">
<path id="Vector" d="M5.72236 2.72669C6.73594 0.909132 7.24232 0.000353611 7.99991 0.000353611C8.75749 0.000353611 9.26388 0.909132 10.2775 2.72669L10.5398 3.19708C10.8278 3.71387 10.9718 3.97226 11.1958 4.14266C11.4198 4.31305 11.6998 4.37625 12.2598 4.50265L12.7686 4.61784C14.7365 5.06343 15.7197 5.28583 15.9541 6.03861C16.1877 6.79059 15.5173 7.57538 14.1758 9.14414L13.8286 9.54973C13.4478 9.99532 13.2566 10.2185 13.171 10.4937C13.0854 10.7697 13.1142 11.0673 13.1718 11.6617L13.2246 12.2033C13.427 14.2968 13.5286 15.3432 12.9158 15.808C12.303 16.2728 11.3814 15.8488 9.53987 15.0008L9.06228 14.7816C8.53909 14.54 8.2775 14.42 7.99991 14.42C7.72231 14.42 7.46072 14.54 6.93753 14.7816L6.46074 15.0008C4.61839 15.8488 3.69681 16.2728 3.08482 15.8088C2.47124 15.3432 2.57283 14.2968 2.77523 12.2033L2.82803 11.6625C2.88563 11.0673 2.91443 10.7697 2.82803 10.4945C2.74323 10.2185 2.55204 9.99532 2.17124 9.55053L1.82405 9.14414C0.482484 7.57618 -0.1879 6.79139 0.0456944 6.03861C0.279289 5.28583 1.26407 5.06263 3.23202 4.61784L3.74081 4.50265C4.29999 4.37625 4.57919 4.31305 4.80398 4.14266C5.02878 3.97226 5.17197 3.71387 5.45997 3.19708L5.72236 2.72669Z" fill="var(--fill-0, #FFB362)"/>
</g>
<defs>
<clipPath id="clip0_0_110">
<rect width="16" height="16" fill="white"/>
</clipPath>
</defs>
</svg>
